<?xml version="1.0" standalone="no"?><!DOCTYPE svg PUBLIC "-//W3C//DTD SVG 1.1//EN" "http://www.w3.org/Graphics/SVG/1.1/DTD/svg11.dtd"><svg t="1727886769542" class="icon" viewBox="0 0 1024 1024" version="1.1" xmlns="http://www.w3.org/2000/svg" p-id="5412" xmlns:xlink="http://www.w3.org/1999/xlink" width="200" height="200"><path d="M925.815 339.506c-22.543-53.298-54.809-101.158-95.9-142.25-41.093-41.092-88.952-73.358-142.251-95.901C632.468 78.008 573.853 66.17 513.447 66.17s-119.021 11.837-174.218 35.184c-53.298 22.543-101.158 54.809-142.25 95.901s-73.358 88.952-95.901 142.25c-23.347 55.197-35.184 113.812-35.184 174.218 0 43.273 6.171 86.069 18.342 127.197 5.015 16.946 22.817 26.618 39.765 21.604 16.946-5.015 26.619-22.818 21.604-39.765-10.425-35.23-15.711-71.915-15.711-109.037 0-211.492 172.061-383.553 383.553-383.553C724.938 130.17 897 302.231 897 513.724c0 211.491-172.062 383.553-383.553 383.553-51.958 0-102.333-10.199-149.724-30.313-16.268-6.906-35.054 0.684-41.959 16.953-6.905 16.269 0.686 35.055 16.954 41.959 55.344 23.491 114.131 35.401 174.729 35.401 60.405 0 119.021-11.838 174.217-35.184 53.299-22.544 101.158-54.81 142.251-95.901 41.092-41.092 73.357-88.952 95.9-142.25C949.162 632.744 961 574.129 961 513.724s-11.838-119.021-35.185-174.218z" p-id="5413"></path><path d="M347.364 674.291c6.279 6.494 14.638 9.758 23.01 9.758 8.008 0 16.027-2.988 22.239-8.994l120.834-116.822 120.834 116.822c6.213 6.007 14.23 8.994 22.238 8.994 8.371 0 16.732-3.265 23.01-9.758 12.284-12.706 11.942-32.964-0.764-45.248l-119.28-115.32 119.28-115.319c12.706-12.284 13.048-32.542 0.764-45.249-12.283-12.705-32.54-13.049-45.248-0.764L513.447 469.214 392.613 352.392c-12.705-12.284-32.963-11.941-45.249 0.764-12.284 12.706-11.942 32.964 0.764 45.249l119.28 115.319-119.28 115.32c-12.706 12.283-13.047 32.541-0.764 45.247z" p-id="5414"></path></svg>