<?xml version="1.0" standalone="no"?><!DOCTYPE svg PUBLIC "-//W3C//DTD SVG 1.1//EN" "http://www.w3.org/Graphics/SVG/1.1/DTD/svg11.dtd"><svg t="1727886510330" class="icon" viewBox="0 0 1024 1024" version="1.1" xmlns="http://www.w3.org/2000/svg" p-id="9167" xmlns:xlink="http://www.w3.org/1999/xlink" width="200" height="200"><path d="M1024 767.91808C1024 909.34272 909.49632 1024 768.24576 1024H254.47936C113.2288 1024 0 909.34272 0 767.91808V253.52192C0 112.09216 113.2288 0 254.47936 0h513.7664C909.49632 0 1024 112.09216 1024 253.52192v514.39616z" fill="#037BD6" p-id="9168"></path><path d="M535.58272 660.1216H433.10592c-0.9984-8.576-3.00032-34.15552-3.00032-40.87808 0-47.72352 19.84-97.17248 65.65888-147.47648 44.81024-48.51712 71.78752-84.31104 71.78752-126.04416 0-46.01344-32.96256-76.5952-96.62464-76.5952-36.82816 0-77.71648 11.00288-104.68864 27.22304L339.4048 224.75264c33.75616-20.43904 94.69952-36.65408 156.35968-36.65408 132.51584 0 190.25408 69.88288 190.25408 143.11936 0 68.16256-46.7456 117.61152-94.62784 168.704-39.81824 42.58304-57.79968 78.3872-57.79968 121.7536l1.99168 38.44608z m-127.45728 135.39328c0-39.22944 30.976-67.23584 73.78944-67.23584 43.82208 0 73.64608 28.0064 73.64608 67.23584 0 37.44256-28.83072 65.52064-73.64608 65.52064-46.81216 0-73.78944-29.71648-73.78944-65.52064z" fill="#E8ECED" p-id="9169"></path></svg>