<?xml version="1.0" standalone="no"?><!DOCTYPE svg PUBLIC "-//W3C//DTD SVG 1.1//EN" "http://www.w3.org/Graphics/SVG/1.1/DTD/svg11.dtd"><svg t="1727887198625" class="icon" viewBox="0 0 1024 1024" version="1.1" xmlns="http://www.w3.org/2000/svg" p-id="4279" xmlns:xlink="http://www.w3.org/1999/xlink" width="200" height="200"><path d="M512 61.44a40.96 40.96 0 0 1 40.96 40.96v122.88a40.96 40.96 0 1 1-81.92 0V102.4A40.96 40.96 0 0 1 512 61.44z" p-id="4280"></path><path d="M737.28 121.795a40.96 40.96 0 0 1 14.991 55.95l-61.44 106.435a40.96 40.96 0 1 1-70.942-40.96l61.44-106.434a40.96 40.96 0 0 1 55.951-14.991z" fill="#191919" p-id="4281"></path><path d="M902.205 286.72a40.96 40.96 0 0 1-14.99 55.951l-106.435 61.44a40.96 40.96 0 0 1-40.96-70.942l106.434-61.44a40.96 40.96 0 0 1 55.951 14.991z" fill="#333333" p-id="4282"></path><path d="M962.56 512a40.96 40.96 0 0 1-40.96 40.96H798.72a40.96 40.96 0 1 1 0-81.92H921.6A40.96 40.96 0 0 1 962.56 512z" fill="#4C4C4C" p-id="4283"></path><path d="M902.205 737.28a40.96 40.96 0 0 1-55.95 14.991l-106.435-61.44a40.96 40.96 0 1 1 40.96-70.942l106.434 61.44a40.96 40.96 0 0 1 14.991 55.951z" fill="#666666" p-id="4284"></path><path d="M737.28 902.205a40.96 40.96 0 0 1-55.951-14.99l-61.44-106.435a40.96 40.96 0 0 1 70.942-40.96l61.44 106.434a40.96 40.96 0 0 1-14.991 55.951z" fill="#7F7F7F" p-id="4285"></path><path d="M512 962.56a40.96 40.96 0 0 1-40.96-40.96V798.72a40.96 40.96 0 1 1 81.92 0V921.6A40.96 40.96 0 0 1 512 962.56z" fill="#999999" p-id="4286"></path><path d="M286.72 902.205a40.96 40.96 0 0 1-14.991-55.95l61.44-106.435a40.96 40.96 0 1 1 70.942 40.96l-61.44 106.434a40.96 40.96 0 0 1-55.951 14.991z" fill="#ACACAC" p-id="4287"></path><path d="M121.795 737.28a40.96 40.96 0 0 1 14.99-55.951l106.435-61.44a40.96 40.96 0 0 1 40.96 70.942l-106.434 61.44a40.96 40.96 0 0 1-55.951-14.991z" fill="#BFBFBF" p-id="4288"></path><path d="M61.44 512a40.96 40.96 0 0 1 40.96-40.96h122.88a40.96 40.96 0 1 1 0 81.92H102.4A40.96 40.96 0 0 1 61.44 512z" fill="#CCCCCC" p-id="4289"></path><path d="M121.795 286.72a40.96 40.96 0 0 1 55.95-14.991l106.435 61.44a40.96 40.96 0 1 1-40.96 70.942l-106.434-61.44a40.96 40.96 0 0 1-14.991-55.951z" fill="#E5E5E5" p-id="4290"></path><path d="M286.72 121.795a40.96 40.96 0 0 1 55.951 14.99l61.44 106.435a40.96 40.96 0 0 1-70.942 40.96l-61.44-106.434a40.96 40.96 0 0 1 14.991-55.951z" fill="#F2F2F2" p-id="4291"></path></svg>